# xmcd
#
# Track frame offsets: 
#        150
#        17230
#        33887
#        55085
#        71700
#        91732
#        110973
#        132531
#        151511
#        166892
#        182467
#        197025
#
# Disc length: 2804 seconds
#
# Revision: 0
# Processed by: cddbd v1.5.2PL0 Copyright (c) Steve Scherf et al.
# Submitted via: ExactAudioCopy v1.0b1
#
DISCID=980af20c
DTITLE=Dierks Bentley - Riser
DYEAR=2014
DGENRE=Country
TTITLE0=Bourbon On  Kentucky
TTITLE1=Say You Do
TTITLE2=I Hold On
TTITLE3=Pretty Girls
TTITLE4=Here On Earth
TTITLE5=Drunk On A Plane
TTITLE6=Live
TTITLE7=Riser
TTITLE8=Sounds Of Summer
TTITLE9=Damn These Dreams
TTITLE10=Back Porch
TTITLE11=Hurt Somebody
EXTD=
EXTT0=
EXTT1=
EXTT2=
EXTT3=
EXTT4=
EXTT5=
EXTT6=
EXTT7=
EXTT8=
EXTT9=
EXTT10=
EXTT11=
PLAYORDER=
